<!-- Generated by IcoMoon.io -->
<svg version="1.1" xmlns="http://www.w3.org/2000/svg" width="1024" height="1024" viewBox="0 0 1024 1024">
<title></title>
<g id="icomoon-ignore">
</g>
<path fill="#000" d="M645.344 311.983h-266.665c-36.8 0.026-66.599 29.873-66.649 66.649v266.681c0.026 36.8 29.873 66.599 66.649 66.649h266.681c36.8-0.026 66.599-29.873 66.649-66.649v-266.681c-0.026-36.8-29.873-66.599-66.649-66.649h-0.001zM436.979 612.020c-13.801 0-25-11.176-25-25s11.176-25 25-25v0c13.801 0 25 11.176 25 25s-11.176 25-25 25v0zM436.979 461.978c-13.801 0-25-11.176-25-25s11.176-25 25-25v0c13.801 0 25 11.176 25 25s-11.176 25-25 25v0zM512 537c-13.801 0-25-11.176-25-25s11.176-25 25-25v0c13.801 0 25 11.176 25 25s-11.176 25-25 25v0zM587.021 612.020c-13.801 0-25-11.176-25-25s11.176-25 25-25v0c13.801 0 25 11.176 25 25s-11.176 25-25 25v0zM587.021 461.978c-13.801 0-25-11.176-25-25s11.176-25 25-25v0c13.801 0 25 11.176 25 25s-11.176 25-25 25v0z"></path>
</svg>
